<svg width="22" height="22" viewBox="0 0 22 22" fill="none" xmlns="http://www.w3.org/2000/svg">
<path d="M0 5C0 2.23858 2.23858 0 5 0H17C19.7614 0 22 2.23858 22 5V17C22 19.7614 19.7614 22 17 22H5C2.23858 22 0 19.7614 0 17V5Z" fill="black"/>
<path fill-rule="evenodd" clip-rule="evenodd" d="M13.8232 10.45H11.5838V8.16475C11.5838 7.8595 11.3424 7.61475 11.045 7.61475C10.7476 7.61475 10.5062 7.8595 10.5062 8.16475V10.45H8.2668C7.96913 10.45 7.72803 10.6975 7.72803 11C7.72803 11.3052 7.96913 11.55 8.2668 11.55H10.5062V13.8352C10.5062 14.1405 10.7476 14.3852 11.045 14.3852C11.3424 14.3852 11.5838 14.1405 11.5838 13.8352V11.55H13.8232C14.1209 11.55 14.362 11.3052 14.362 11C14.362 10.6975 14.1209 10.45 13.8232 10.45Z" fill="white"/>
<path d="M13.8232 10.45H11.5838V8.16475C11.5838 7.8595 11.3424 7.61475 11.045 7.61475C10.7476 7.61475 10.5062 7.8595 10.5062 8.16475V10.45H8.2668C7.96913 10.45 7.72803 10.6975 7.72803 11C7.72803 11.3052 7.96913 11.55 8.2668 11.55H10.5062V13.8352C10.5062 14.1405 10.7476 14.3852 11.045 14.3852C11.3424 14.3852 11.5838 14.1405 11.5838 13.8352V11.55H13.8232C14.1209 11.55 14.362 11.3052 14.362 11C14.362 10.6975 14.1209 10.45 13.8232 10.45" stroke="white"/>
</svg>
