<svg width="30" height="30" viewBox="0 0 30 30" fill="none" xmlns="http://www.w3.org/2000/svg">
<circle cx="15" cy="15" r="15" fill="#F4C711"/>
<path d="M17.7144 12.1833C17.6576 11.6103 17.4137 11.1653 16.9829 10.848C16.552 10.5308 15.9672 10.3722 15.2286 10.3722C14.7267 10.3722 14.3029 10.4432 13.9573 10.5852C13.6117 10.7226 13.3465 10.9143 13.1618 11.1605C12.9819 11.4067 12.892 11.6861 12.892 11.9986C12.8825 12.259 12.9369 12.4863 13.0553 12.6804C13.1784 12.8745 13.3465 13.0426 13.5596 13.1847C13.7726 13.322 14.0188 13.4427 14.2982 13.5469C14.5776 13.6463 14.8759 13.7316 15.1931 13.8026L16.4999 14.1151C17.1344 14.2571 17.7168 14.4465 18.2471 14.6833C18.7774 14.92 19.2367 15.2112 19.6249 15.5568C20.0132 15.9025 20.3138 16.3097 20.5269 16.7784C20.7447 17.2472 20.856 17.7846 20.8607 18.3906C20.856 19.2808 20.6287 20.0526 20.1789 20.706C19.7338 21.3547 19.0899 21.8589 18.2471 22.2188C17.409 22.5739 16.3981 22.7514 15.2144 22.7514C14.0402 22.7514 13.0174 22.5715 12.1462 22.2117C11.2797 21.8518 10.6027 21.3191 10.115 20.6137C9.63201 19.9034 9.3787 19.0251 9.35502 17.9787H12.3309C12.364 18.4664 12.5037 18.8736 12.7499 19.2003C13.0009 19.5223 13.3347 19.7661 13.7513 19.9318C14.1727 20.0928 14.6486 20.1733 15.1789 20.1733C15.6997 20.1733 16.1519 20.0976 16.5354 19.946C16.9237 19.7945 17.2243 19.5838 17.4374 19.3139C17.6505 19.0441 17.757 18.7339 17.757 18.3835C17.757 18.0568 17.6599 17.7822 17.4658 17.5597C17.2764 17.3371 16.9971 17.1477 16.6277 16.9915C16.2632 16.8352 15.8157 16.6932 15.2854 16.5654L13.7016 16.1676C12.4753 15.8693 11.507 15.403 10.7968 14.7685C10.0866 14.134 9.73381 13.2794 9.73855 12.2046C9.73381 11.3239 9.96819 10.5545 10.4417 9.89632C10.9199 9.23818 11.5757 8.72445 12.409 8.35513C13.2423 7.98581 14.1893 7.80115 15.2499 7.80115C16.3295 7.80115 17.2717 7.98581 18.0766 8.35513C18.8863 8.72445 19.516 9.23818 19.9658 9.89632C20.4156 10.5545 20.6476 11.3168 20.6618 12.1833H17.7144Z" fill="white"/>
</svg>
